<svg width="132mm" height="123mm" version="1.1" viewBox="0 0 132 123" xmlns="http://www.w3.org/2000/svg" xmlns:cc="http://creativecommons.org/ns#" xmlns:dc="http://purl.org/dc/elements/1.1/" xmlns:rdf="http://www.w3.org/1999/02/22-rdf-syntax-ns#">
<g transform="matrix(7.6142 0 0 7.5599 224.09 515.61)">
<g transform="matrix(.89816 0 0 .90626 -3.4366 -7.0537)">
<path d="m-19.983-49.709c-0.38667 0.12687-0.72921 0.08355-1.061-0.13416l-0.23317-0.15304-3.2884-5.8866-3.2884-5.8866-0.0161-0.25185c-0.0431-0.67128 0.4145-1.3 1.0459-1.4373 0.0674-0.01469 1.4061-0.15398 2.9748-0.30957 11.717-1.1621 11.92-1.1812 12.131-1.1424 0.12981 0.02382 0.28603 0.08904 0.41199 0.172 0.18637 0.12272 0.21553 0.15615 0.35705 0.40961 0.14075 0.25204 0.15541 0.29705 0.16601 0.52087 0.0221 0.45702 0.0493 0.40714-1.6612 3.0519-0.85716 1.3254-1.6183 2.4979-1.6914 2.6056-0.0731 0.1077-1.2746 1.9552-2.6699 4.1056-1.5406 2.3742-2.5875 3.9576-2.6656 4.0316-0.16066 0.1521-0.29978 0.23489-0.51147 0.30437z" fill="#a430f4" stroke-width=".033623"/>
<path d="m-19.194-49.988c-0.37112 0.16697-0.71632 0.16004-1.0692-0.02145l-0.24802-0.12758-3.8912-5.5067-3.8912-5.5067-0.0427-0.24874c-0.11362-0.66299 0.27499-1.3365 0.88839-1.5397 0.0655-0.02173 1.382-0.30151 2.9255-0.62176 11.529-2.3921 11.728-2.4324 11.943-2.4162 0.1316 0.01 0.29383 0.05836 0.42784 0.12757 0.19828 0.10237 0.2308 0.13254 0.39828 0.36964 0.16656 0.23578 0.18589 0.27899 0.22005 0.50045 0.0702 0.45213 0.092 0.39967-1.3298 3.2102-0.71251 1.4084-1.3456 2.6547-1.407 2.7695-0.0613 0.11481-1.0611 2.0788-2.2218 4.3644-1.2814 2.5235-2.1554 4.2086-2.2253 4.2904-0.1437 0.16821-0.27332 0.26521-0.47649 0.35665z" fill="#f0f" stroke-width=".033623"/>
<path d="m-18.219-50.602c-0.3484 0.2103-0.69194 0.24485-1.064 0.10701l-0.26153-0.0969-4.524-4.9999-4.524-4.9999-0.0721-0.24183c-0.19239-0.64456 0.11261-1.3599 0.69719-1.6352 0.0624-0.02943 1.3359-0.46518 2.8298-0.96835 11.158-3.7583 11.352-3.8223 11.566-3.8319 0.13185-0.0059 0.29871 0.02268 0.44006 0.0753 0.20912 0.07783 0.24504 0.10388 0.43976 0.31917 0.19365 0.21408 0.21803 0.25466 0.27851 0.47042 0.12397 0.44044 0.13929 0.38574-0.93497 3.3466-0.53834 1.4838-1.0173 2.797-1.0644 2.9184-0.0471 0.12133-0.80399 2.1911-1.6819 4.5995-0.96931 2.659-1.6348 4.4368-1.6943 4.5264-0.12249 0.18424-0.23952 0.2961-0.43026 0.41125z" fill="#00225c" stroke-width=".033623"/>
<g transform="translate(-88.939 -28.027)" fill="#0cabf5">
<path d="m69.79-22.475c-0.36752 0.17475-0.71279 0.1751-1.0694 0.0011l-0.25065-0.12233-4.0064-5.4235-4.0064-5.4235-0.0479-0.24779c-0.12759-0.66045 0.24676-1.342 0.85574-1.558 0.0651-0.0231 1.3754-0.33056 2.9118-0.68327 11.476-2.6345 11.674-2.679 11.889-2.6673 0.13178 0.0072 0.29499 0.05216 0.43043 0.11852 0.20039 0.09817 0.23354 0.12764 0.40598 0.36117 0.1715 0.23222 0.19173 0.27501 0.23055 0.4957 0.0797 0.45055 0.10039 0.39764-1.2619 3.2375-0.68268 1.4231-1.2894 2.6825-1.3483 2.7986-0.0589 0.11607-1.0171 2.1007-2.1293 4.4103-1.2279 2.5499-2.0663 4.2531-2.1344 4.3363-0.14013 0.1712-0.26767 0.27091-0.46887 0.36661z" stroke-width=".033623"/>
<rect transform="matrix(.97788 -.20917 .32933 .94421 0 0)" x="72.846" y="-15.438" width=".21129" height="2.3419" rx=".13538" ry=".10391" fill-rule="evenodd" stop-color="#000000" stroke-width=".69737" style="font-variation-settings:normal"/>
</g>
<g transform="matrix(1.1784 -.075385 .071627 1.0547 108.4 -24.754)" fill="#1a1a1a">
<path d="m-106.98-37.868c-0.0997 0.05574-0.18 0.06929-0.34086 0.05745-0.0856-0.0063-0.1652-0.02735-0.22428-0.05934-0.0685-0.03709-0.0958-0.06223-0.15077-0.1392-0.0543-0.07592-0.0541-0.07582-0.15454-0.32557-0.0993-0.2472-0.27356-0.67687-0.48892-1.206-0.10387-0.25511-0.20488-0.50834-0.22457-0.56274-0.20105-0.55573-0.16695-0.82016 0.15047-1.1666 0.11887-0.12976 0.27721-0.27542 0.34953-0.32157 0.1333-0.08505 0.25032-0.097 0.40163-0.041 0.04 0.01482 0.0814 0.01755 0.11337 0.0075 0.0263-0.0083 0.048-0.02612 0.58254-0.47588 0.52418-0.44113 0.55617-0.46878 0.57114-0.49435 0.0206-0.03519 0.0281-0.08332 0.024-0.15491-8e-3 -0.1333 0.018-0.22644 0.0909-0.33226 0.031-0.0449 0.0386-0.05249 0.13066-0.13014 0.13547-0.11426 0.27403-0.21008 0.40356-0.27915 0.13512-0.07205 0.26384-0.1046 0.37634-0.09517 0.1579 0.01325 0.31158 0.08519 0.52898 0.24761 0.1062 0.07935 0.15339 0.11864 0.49211 0.40979 0.39237 0.33726 0.71016 0.60783 0.94196 0.80198 0.22255 0.1864 0.25151 0.21425 0.29893 0.2876 0.0896 0.13856 0.10232 0.28776 0.0451 0.52713-0.0251 0.10489-0.0623 0.17877-0.12641 0.25178-0.0404 0.04592-0.11718 0.10372-0.17282 0.13009-0.057 0.02702-0.15061 0.04666-0.21418 0.04496-0.0929-0.0024-0.23835-0.03665-0.43074-0.1012-0.33858-0.11359-0.42723-0.13868-0.48944-0.13852-0.0618 1.57e-4 -0.0967 0.01321-0.14531 0.0544-0.0427 0.03605-0.0477 0.04283-0.15076 0.19953-0.12315 0.18737-0.28273 0.37365-0.48452 0.5656-0.0944 0.08975-0.48773 0.41543-0.58435 0.4838-0.22452 0.15885-0.39601 0.25382-0.62006 0.34337-0.14467 0.05783-0.2025 0.11872-0.22136 0.23309-8e-3 0.0453-9e-3 0.17743-3e-3 0.30127 0.02 0.44646 0.0198 0.52371-8e-4 0.67243-0.0246 0.16923-0.12882 0.32402-0.27223 0.40426zm0.0744-1.9053c7e-3 -0.01704 0.0136-0.04764 0.0145-0.06803 3e-3 -0.05956-6e-3 -0.07518-0.11748-0.23209l-0.0977-0.1366 0.12261-0.10319c0.097-0.0816 0.12607-0.1085 0.13914-0.12855 0.022-0.0336 0.0309-0.09286 0.0207-0.13675-8e-3 -0.03126-0.0118-0.03925-0.0671-0.11652-0.0552-0.07727-0.0613-0.08412-0.0874-0.09943-0.0366-0.02154-0.0918-0.02683-0.12728-0.01218-0.0212 0.0087-0.0524 0.03264-0.14937 0.11424l-0.12262 0.10319-0.0977-0.1366c-0.11226-0.1569-0.12413-0.16919-0.1781-0.18108-0.0184-0.0041-0.0474-5e-3 -0.0645-0.0019-0.0304 0.0054-0.0323 0.0067-0.10962 0.07178-0.0773 0.06507-0.079 0.0668-0.0914 0.0974-7e-3 0.01714-0.0134 0.04781-0.0143 0.0682-3e-3 0.05956 6e-3 0.07518 0.11748 0.23209l0.0978 0.1366-0.12261 0.10319c-0.097 0.0816-0.12608 0.1085-0.13914 0.12856-0.0207 0.03174-0.0308 0.09218-0.0224 0.13454 6e-3 0.02925 0.01 0.03604 0.0689 0.11872 0.0588 0.08224 0.0643 0.08854 0.0887 0.10177 0.0354 0.01922 0.0925 0.02369 0.12601 0.0099 0.0212-0.0087 0.0524-0.03264 0.14937-0.11424l0.12261-0.10319 0.0995 0.13899c0.11279 0.15766 0.12163 0.1664 0.177 0.17883 0.0329 0.0073 0.069 4e-3 0.0978-0.0092 9e-3 -0.0039 0.0466-0.03411 0.0848-0.0672 0.0662-0.05728 0.0699-0.06168 0.0822-0.09117zm1.7383-1.481c0.0459-0.07045 0.0659-0.1672 0.0518-0.24857-0.0197-0.11237-0.0975-0.21191-0.19451-0.24887-0.0979-0.03725-0.19661-0.02075-0.27608 0.04613-0.0794 0.06687-0.11874 0.16654-0.10974 0.27858 7e-3 0.08139 0.0497 0.16897 0.1093 0.22184 0.0818 0.07259 0.19243 0.09273 0.29461 0.05366 0.0385-0.0147 0.10066-0.06602 0.12459-0.10279zm0.68274-0.58382c0.049-0.08584 0.0572-0.19576 0.0218-0.29291-0.0154-0.04211-0.0646-0.11088-0.0983-0.13746-0.0682-0.05365-0.15804-0.07764-0.23201-0.06198-0.0403 0.0085-0.0965 0.0349-0.12442 0.05847-9e-3 0.0079-0.0282 0.02876-0.0418 0.04639-0.12647 0.16364-0.0706 0.41075 0.1139 0.50376 0.0658 0.03318 0.15917 0.03566 0.22721 0.0061 0.0416-0.01805 0.11007-0.08075 0.13379-0.12233zm-0.7974-0.35236c0.0452-0.07685 0.0582-0.16391 0.0382-0.25581-0.0469-0.21501-0.2844-0.31732-0.45126-0.19446-0.0723 0.05322-0.11283 0.12646-0.12271 0.22154-9e-3 0.08932 0.0111 0.16645 0.0616 0.23753 0.0508 0.07108 0.11478 0.11126 0.19686 0.12369 0.055 0.0083 0.10698 0.0014 0.15474-0.0208 0.0374-0.01737 0.10155-0.07575 0.12267-0.1117z" fill="#1a1a1a" stroke-width=".0056842"/>
</g>
</g>
</g>
</svg> 